<?xml version="1.0" encoding="UTF-8" standalone="no"?>
<!-- Created with Inkscape (http://www.inkscape.org/) -->

<svg
   version="1.1"
   id="svg1"
   width="2942.5288"
   height="2942.5288"
   viewBox="0 0 2942.5288 2942.5288"
   xmlns:xlink="http://www.w3.org/1999/xlink"
   xmlns="http://www.w3.org/2000/svg"
   xmlns:svg="http://www.w3.org/2000/svg">
  <defs
     id="defs1">
    <linearGradient
       id="linearGradient3">
      <stop
         style="stop-color:#fe3d00;stop-opacity:1;"
         offset="0"
         id="stop3" />
      <stop
         style="stop-color:#e60076;stop-opacity:1;"
         offset="1"
         id="stop4" />
    </linearGradient>
    <linearGradient
       xlink:href="#linearGradient3"
       id="linearGradient4"
       x1="425.5314"
       y1="983.63434"
       x2="2516.9956"
       y2="1958.9001"
       gradientUnits="userSpaceOnUse"
       gradientTransform="matrix(1.2687097,0,0,1.2687097,-395.34278,-395.34378)" />
  </defs>
  <g
     id="g1">
    <path
       id="rect2"
       style="opacity:1;fill:url(#linearGradient4);stroke-width:4.46125"
       d="M 584.67145,903.48839 H 2372.7015 c 8.4028,0 15.1675,6.76476 15.1675,15.16743 v 971.62128 c 0,8.4028 -6.7647,15.1676 -15.1675,15.1676 H 584.67145 c -8.40278,0 -15.16746,-6.7648 -15.16746,-15.1676 V 918.65582 c 0,-8.40267 6.76468,-15.16743 15.16746,-15.16743 z M 1439.183,2904.9721 c -17.3889,-16.5982 -33.7163,-32.2094 -36.2829,-34.6916 -2.5665,-2.4822 -11.9138,-11.4237 -20.7717,-19.87 -15.7991,-15.0649 -53.0949,-50.6798 -121.3238,-115.8554 -20.9876,-20.0484 -34.5706,-32.6938 -34.9989,-32.583 -0.3849,0.099 -71.0477,27.5437 -157.0283,60.9867 -85.98058,33.4432 -156.74832,60.89 -157.26164,60.9929 -0.91283,0.183 -7.12951,-13.6286 -41.00164,-91.0948 -1.12225,-2.5666 -7.44314,-16.9511 -14.04643,-31.9656 -6.60328,-15.0146 -15.05247,-34.2289 -18.77595,-42.6986 -3.72349,-8.4698 -7.92775,-18.0244 -9.34282,-21.2327 -1.41505,-3.2082 -4.45798,-10.138 -6.76203,-15.3995 -4.06881,-9.2915 -7.76679,-17.6993 -17.13817,-38.9655 -2.48825,-5.6464 -10.26645,-23.3384 -17.28493,-39.3154 l -12.76085,-29.049 -1.44137,0.013 c -2.45822,0.016 -336.95992,-7.5664 -337.03287,-7.64 -0.0732,-0.074 -7.65676,-334.592 -7.64054,-337.0335 l 0.0102,-1.4415 -14.11622,-6.2012 c -7.76392,-3.4106 -17.58111,-7.7283 -21.81597,-9.5946 -11.97181,-5.276 -177.44685,-78.0219 -182.6942,-80.3156 -76.59894,-33.484 -91.27733,-40.0906 -91.09459,-41.0012 0.10302,-0.5133 27.65369,-71.5592 61.22371,-157.8795 l 61.03638,-156.9462 -2.33188,-2.4154 c -1.28252,-1.3285 -38.19686,-40.0042 -82.03186,-85.9461 -43.835,-45.9419 -81.733655,-85.6305 -84.219235,-88.1971 -17.811872,-18.3924 -64.8761053,-67.9873 -64.8761053,-68.3646 0,-0.3774 47.1296733,-50.0409 64.8765113,-68.3645 2.485821,-2.5665 40.487309,-42.3603 84.447759,-88.4305 43.96046,-46.0703 80.87825,-84.7503 82.03955,-85.9558 l 2.11144,-2.1917 -61.20909,-157.4033 c -33.665,-86.57164 -61.20696,-157.61304 -61.20436,-157.8697 0.004,-0.36678 40.7399,-18.46582 91.23177,-40.53416 6.45015,-2.81916 137.82249,-60.57286 149.32859,-65.64759 5.13316,-2.26398 14.05789,-6.1902 19.8327,-8.72493 5.77482,-2.53473 19.26689,-8.46173 29.98239,-13.1711 l 19.48271,-8.5625 -0.0102,-1.44433 c -0.0162,-2.44383 7.56723,-336.96244 7.64054,-337.03689 0.0729,-0.0741 334.57314,-7.65628 337.03287,-7.63963 l 1.44137,0.0102 12.76085,-29.04908 c 7.01848,-15.977 14.79668,-33.66894 17.28493,-39.31542 9.00238,-20.42888 62.4261,-141.93768 66.06557,-150.2619 22.56699,-51.61526 40.1673,-91.2277 40.53484,-91.23015 0.25666,-0.001 71.30174,27.53731 157.87797,61.19783 l 157.4114,61.20093 2.4169,-2.33342 c 1.3293,-1.28339 40.0057,-38.19843 85.9476,-82.03343 45.9418,-43.835 85.6306,-81.733652 88.1971,-84.219232 18.3924,-17.811872 67.9872,-64.8761051 68.3645,-64.8761051 0.3774,0 49.9722,47.0642331 68.3646,64.8761051 2.5666,2.48558 42.2553,40.384232 88.1971,84.219232 45.9419,43.835 84.6184,80.75004 85.9476,82.03343 l 2.4169,2.33342 157.4114,-61.20093 c 86.5762,-33.66052 157.6213,-61.19954 157.878,-61.19783 0.3678,0.003 17.8454,39.33859 40.535,91.23015 2.8594,6.53969 39.0288,88.80036 42.165,95.89695 1.418,3.20824 4.7399,10.768 7.3824,16.79947 11.8043,26.94355 46.4496,105.65453 46.543,105.74144 0.057,0.053 76.2263,1.81815 169.2649,3.9226 93.0387,2.10446 169.1927,3.85764 169.2312,3.89598 0.074,0.0738 7.6563,334.57415 7.6396,337.0304 l -0.013,1.43801 23.4491,10.31574 c 12.8972,5.67365 40.2488,17.69449 60.7815,26.71297 20.5327,9.01848 38.9071,17.09759 40.832,17.95359 1.9249,0.856 10.4297,4.5999 18.8995,8.31978 8.4696,3.71988 27.684,12.16612 42.6985,18.7694 15.0146,6.60329 29.3991,12.92418 31.9657,14.04643 51.8739,22.68184 91.2281,40.16733 91.2318,40.535 0,0.25666 -27.5395,71.29857 -61.2047,157.87097 l -61.2096,157.4042 2.3404,2.424 c 1.2872,1.3333 38.2054,40.0128 82.0404,85.9547 43.835,45.9419 81.7337,85.6307 84.2192,88.1971 19.386,20.0179 64.8761,68.0053 64.8761,68.4379 0,0.2961 -2.1727,2.7633 -4.8281,5.4824 -2.6555,2.7192 -16.2374,16.9135 -30.1819,31.5431 -13.9447,14.6295 -27.386,28.6991 -29.8697,31.2657 -2.4836,2.5666 -40.3806,42.2553 -84.2156,88.1972 -43.835,45.9419 -80.7499,84.6181 -82.0329,85.9471 l -2.3329,2.4164 61.2004,157.4118 c 33.6601,86.5765 61.199,157.6219 61.1972,157.8785 0,0.3678 -39.3309,17.842 -91.2301,40.535 -2.5666,1.1223 -16.9511,7.4432 -31.9657,14.0464 -15.0145,6.6034 -34.2289,15.0496 -42.6985,18.7694 -8.4698,3.7199 -16.9746,7.4644 -18.8995,8.3209 -1.9249,0.8565 -30.7884,13.5492 -64.141,28.2059 -33.3526,14.6567 -60.6834,26.6942 -60.7351,26.75 -0.052,0.056 -1.8162,76.2241 -3.9211,169.2628 -2.1048,93.0386 -3.858,169.1928 -3.8961,169.2315 -0.038,0.038 -76.1917,1.7919 -169.2304,3.8963 -93.0387,2.1043 -169.2079,3.8694 -169.2649,3.9221 -0.094,0.086 -34.7223,78.7601 -46.543,105.741 -2.6425,6.0316 -5.9633,13.5913 -7.3797,16.7995 -1.4165,3.2083 -5.6219,12.763 -9.3453,21.2328 -3.7236,8.4696 -12.1727,27.684 -18.776,42.6985 -6.6033,15.0146 -12.9241,29.3991 -14.0464,31.9657 -22.6919,51.8965 -40.1673,91.2277 -40.535,91.2303 -0.2567,0 -71.3008,-27.5376 -157.8756,-61.1986 l -157.4091,-61.2019 -2.1858,2.1057 c -1.2024,1.1582 -39.8798,38.0733 -85.9501,82.0339 -46.0701,43.9604 -85.8638,81.9619 -88.4304,84.4477 -18.3236,17.7468 -67.9871,64.8765 -68.3646,64.8765 -0.2559,0 -14.6925,-13.5803 -32.0816,-30.1785 z m 36.226,-107.9653 c 1.2038,-0.5462 4.2739,-3.0858 7.4664,-6.1762 2.9821,-2.8867 9.7983,-9.4398 15.1471,-14.5625 5.4187,-5.1897 10.1196,-10.0876 10.6163,-11.0611 0.6037,-1.1832 0.8913,-2.7152 0.8913,-4.7463 0,-2.6124 -0.1955,-3.2882 -1.5166,-5.2418 -2.7438,-4.0573 -8.1856,-5.5983 -12.5963,-3.5669 -0.9607,0.4424 -5.3704,4.2822 -9.7996,8.5329 -11.1322,10.6837 -13.9302,13.2707 -14.353,13.2707 -0.4227,0 -3.2207,-2.587 -14.3529,-13.2707 -4.4292,-4.2507 -8.8389,-8.0905 -9.7996,-8.5329 -4.4107,-2.0314 -9.8525,-0.4904 -12.5963,3.5669 -1.3211,1.9536 -1.5166,2.6294 -1.5166,5.2418 0,2.0311 0.2876,3.5631 0.8913,4.7463 0.4975,0.975 5.189,5.8596 10.6163,11.0534 5.3488,5.1184 12.14,11.6614 15.0916,14.54 3.2868,3.2055 6.1802,5.6019 7.4664,6.1838 2.6581,1.2028 5.7248,1.211 8.3442,0.023 z m -82.7712,-79.253 c 3.5438,-1.61 5.8354,-5.3118 5.8164,-9.3961 -0.013,-2.4958 -1.6077,-5.4812 -4.3095,-8.0611 -1.3443,-1.2837 -4.3341,-4.1369 -6.6441,-6.3404 -2.3099,-2.2036 -7.0437,-6.742 -10.5196,-10.0853 -3.4758,-3.3434 -8.414,-8.0738 -10.9736,-10.512 -2.5596,-2.4384 -9.2418,-8.8431 -14.8491,-14.2329 -5.6074,-5.3899 -10.9151,-10.312 -11.7949,-10.938 -2.1269,-1.5133 -6.3613,-1.8605 -9.2474,-0.7583 -2.4972,0.9537 -5.1427,3.7663 -5.813,6.18 -1.2533,4.5136 -0.014,7.9348 4.3674,12.0494 3.9516,3.7114 11.4312,10.8681 17.7649,16.9979 2.8232,2.7324 7.3381,7.0478 10.0329,9.5898 2.695,2.5421 7.3149,6.955 10.2664,9.8066 12.6718,12.2422 15.899,15.1839 17.3557,15.8203 2.1926,0.9576 6.3024,0.9 8.5475,-0.1205 z m 166.9397,-0.5855 c 0.9618,-0.6576 6.3167,-5.5851 11.8996,-10.9502 5.5828,-5.3652 12.2507,-11.7433 14.8173,-14.1739 2.5666,-2.4306 6.9764,-6.6548 9.7996,-9.3872 6.3338,-6.1298 13.8133,-13.2865 17.7649,-16.9979 4.3738,-4.1081 5.6205,-7.5372 4.3731,-12.0291 -1.6106,-5.7994 -9.1846,-8.7117 -14.5207,-5.5832 -1.2003,0.7037 -6.7346,5.6839 -12.2986,11.0669 -5.5639,5.3831 -10.5282,10.1448 -11.032,10.5818 -0.5037,0.4368 -5.3589,5.0622 -10.7893,10.2785 -11.6287,11.1705 -17.3039,16.6071 -20.9644,20.0822 -4.075,3.8689 -5.2812,7.3358 -4.07,11.6975 0.6335,2.2806 2.9692,4.9189 5.3345,6.0251 2.7391,1.2811 7.3432,0.9909 9.686,-0.6105 z m -583.89712,-21.7511 c 32.96942,-12.7855 33.84002,-13.1481 35.36912,-14.728 4.8867,-5.0491 3.3924,-13.315 -2.9368,-16.2453 -3.5942,-1.6642 -4.9922,-1.3426 -20.72746,4.7672 -8.00594,3.1084 -14.62924,5.5758 -14.71856,5.4831 -0.0888,-0.093 -2.71986,-6.0486 -5.8457,-13.2349 -6.67976,-15.3569 -7.12013,-16.1946 -9.30574,-17.7083 -6.69143,-4.6341 -15.3047,-0.5881 -15.81522,7.429 -0.20186,3.1711 -0.75019,1.7158 8.8835,23.5788 1.52677,3.4649 3.90522,8.8944 5.28557,12.0656 3.52943,8.1086 5.14817,9.9451 9.54501,10.8287 2.41461,0.4854 4.31793,0.071 10.26628,-2.2359 z m 1004.32442,1.213 c 2.6311,-1.3186 3.7343,-3.143 8.5944,-14.2119 2.4694,-5.6243 6.1743,-14.006 8.233,-18.6258 4.0109,-9.0003 4.727,-12.0323 3.628,-15.3619 -1.6299,-4.9388 -7.0631,-7.6695 -12.2562,-6.1598 -4.835,1.4056 -4.5362,0.8929 -16.3499,28.0548 -1.0047,2.31 -1.9003,4.2758 -1.9902,4.3686 -0.09,0.093 -6.7139,-2.3747 -14.7198,-5.4831 -15.7353,-6.1098 -17.1332,-6.4314 -20.7275,-4.7672 -6.3292,2.9303 -7.8235,11.1962 -2.9368,16.2453 1.4532,1.5015 1.9328,1.708 23.4695,10.1008 3.5933,1.4003 8.9544,3.4904 11.9137,4.6445 2.9593,1.1542 5.8993,2.1922 6.5331,2.3068 1.8017,0.3256 4.721,-0.1652 6.6087,-1.1111 z m -886.2615,-47.1667 c 48.5235,-18.7557 55.3104,-21.4578 56.8712,-22.6427 2.3049,-1.7495 3.9836,-5.6867 3.6446,-8.5484 -0.6534,-5.5174 -4.7951,-9.3115 -10.1642,-9.3115 -1.6629,0 -11.8679,3.8202 -48.485,18.1507 -5.7748,2.26 -14.1302,5.5259 -18.5675,7.2574 -4.4373,1.7315 -8.6989,3.6793 -9.4701,4.3283 -2.9877,2.514 -4.2199,6.9272 -2.9745,10.654 1.5233,4.559 6.0182,7.5264 10.4794,6.9184 0.8984,-0.123 9.2981,-3.1853 18.6661,-6.8062 z m 779.0753,5.8194 c 6.1359,-3.0653 7.5591,-10.9072 2.857,-15.7425 -1.658,-1.705 -3.0516,-2.4163 -10.0901,-5.1491 -4.4915,-1.7438 -12.8913,-5.0197 -18.6661,-7.2797 -36.6171,-14.3305 -46.8221,-18.1507 -48.485,-18.1507 -8.9508,0 -13.5967,10.7683 -7.3315,16.9935 1.7137,1.7026 3.5107,2.5232 16.851,7.6949 8.2132,3.1839 16.9279,6.5652 19.3661,7.5139 28.416,11.0571 37.7839,14.6535 38.9654,14.9588 1.7555,0.4539 4.7031,0.075 6.5332,-0.8391 z m -588.638,-41.808 c 3.1645,-1.6707 4.7891,-4.3281 5.0075,-8.1912 0.1419,-2.5134 -0.018,-3.5548 -0.7681,-5.0269 -0.5621,-1.1016 -4.6122,-5.3551 -9.9593,-10.4592 -4.9566,-4.7314 -11.5873,-11.1224 -14.7353,-14.2023 -3.1913,-3.1225 -6.7784,-6.1676 -8.1085,-6.8832 -3.7279,-2.0055 -5.2062,-1.7963 -15.4865,2.1924 -24.8102,9.626 -30.2032,11.8106 -31.7742,12.8709 -2.5167,1.6985 -4.1905,5.3481 -3.9243,8.5572 0.4592,5.5366 4.5996,9.4306 9.9409,9.3491 2.4375,-0.037 4.8208,-0.8381 18.4134,-6.188 8.5872,-3.3798 15.7617,-6.0898 15.9431,-6.022 0.1813,0.067 4.075,3.7103 8.6525,8.0946 4.5775,4.3843 9.9588,9.5291 11.9586,11.433 1.9998,1.9038 4.5002,3.934 5.5565,4.5115 2.6482,1.4476 6.5018,1.4327 9.2837,-0.035 z m 383.452,0.035 c 1.0566,-0.5775 3.4521,-2.5091 5.3233,-4.2926 1.8712,-1.7832 7.251,-6.9281 11.955,-11.4328 4.704,-4.5048 8.7026,-8.246 8.8858,-8.3137 0.1832,-0.067 7.3592,2.6422 15.9466,6.022 13.5924,5.3499 15.9757,6.1507 18.4132,6.188 7.4253,0.1129 12.2465,-7.589 8.9422,-14.2861 -1.9233,-3.8983 -0.5017,-3.2226 -34.6998,-16.4911 -10.2803,-3.9887 -11.7586,-4.1979 -15.4865,-2.1923 -1.3301,0.7155 -4.9172,3.7607 -8.1085,6.8831 -3.148,3.0799 -9.7787,9.4709 -14.7353,14.2023 -5.0376,4.8088 -9.4084,9.3796 -9.9108,10.3645 -0.6114,1.1983 -0.8989,2.7211 -0.8989,4.7609 0,2.6124 0.1955,3.2883 1.5166,5.2418 2.8684,4.2417 8.5251,5.7138 12.8571,3.346 z M 926.63498,2591.348 c 1.48845,-0.9202 2.501,-2.0519 3.45444,-3.8612 2.263,-4.294 2.06914,-4.9961 -7.14855,-25.892 -4.41561,-10.0096 -11.07583,-25.1292 -14.80038,-33.5989 -8.96103,-20.3768 -8.78772,-20.0241 -10.63699,-21.6478 -6.05238,-5.3141 -15.87422,-1.1935 -16.45999,6.9056 -0.22139,3.0607 -0.98363,1.1488 14.34162,35.9749 4.91308,11.1646 10.76234,24.4939 12.99832,29.6208 4.47397,10.2578 6.21946,12.7201 9.70524,13.6908 2.7701,0.7713 6.12787,0.3029 8.54629,-1.1922 z m 1097.49592,1.201 c 3.8305,-0.9646 5.3929,-3.1021 10.0139,-13.6996 2.2355,-5.1269 8.5069,-19.4011 13.9363,-31.7208 14.2268,-32.2808 13.6294,-30.7696 13.4027,-33.9027 -0.615,-8.5027 -11.1346,-12.3948 -16.9373,-6.2668 -1.4217,1.5014 -2.8049,4.1324 -5.8028,11.0374 -2.1648,4.9864 -4.8157,11.061 -5.8905,13.4993 -1.0749,2.4382 -4.9513,11.2579 -8.6143,19.5994 -3.6629,8.3414 -8.0056,18.2111 -9.6503,21.9326 -3.7162,8.4089 -4.0603,10.5563 -2.2757,14.2038 1.3229,2.7039 3.0066,4.2151 5.8141,5.2185 2.13,0.7612 3.2975,0.7804 6.0039,0.099 z M 864.32914,2454.5199 c 2.00175,-0.761 4.8633,-3.717 5.68751,-5.8752 1.42801,-3.7392 0.9989,-5.1154 -8.00682,-25.6799 -9.49407,-21.6796 -10.02784,-22.531 -14.71643,-23.4766 -3.36937,-0.6795 -42.40424,-1.5085 -44.44879,-0.9439 -5.75002,1.5875 -8.90229,8.3411 -6.40527,13.7229 1.02257,2.2038 3.45055,4.622 5.41323,5.3912 1.18651,0.4651 19.04322,1.188 33.3656,1.3511 l 3.03324,0.034 1.33857,3.1446 c 0.73622,1.7297 3.86553,8.8693 6.95404,15.866 5.7416,13.0071 6.93122,14.971 9.83292,16.2335 1.71376,0.7455 6.25296,0.878 7.9522,0.2318 z m 1221.64766,-0.1851 c 3.0584,-1.2852 4.2345,-3.1997 10.0255,-16.3185 3.0792,-6.9757 6.2008,-14.0981 6.9371,-15.8277 l 1.3384,-3.1446 3.0334,-0.034 c 14.3223,-0.163 32.179,-0.8859 33.3655,-1.351 1.9627,-0.7693 4.3907,-3.1874 5.4132,-5.3913 2.4971,-5.3817 -0.6551,-12.1353 -6.4052,-13.7229 -2.0445,-0.5645 -41.0794,0.2644 -44.4488,0.944 -4.0097,0.8086 -5.7154,2.896 -9.489,11.6122 -1.7222,3.9783 -5.4605,12.483 -8.3071,18.8995 -5.6948,12.8361 -6.2913,15.0729 -4.9533,18.5762 0.8337,2.1829 2.9625,4.5029 5.1922,5.6584 1.7324,0.8977 6.2698,0.9526 8.2981,0.1002 z M 733.63677,2415.9569 c 4.19443,-1.4292 7.33614,-6.6126 6.56964,-10.839 -0.40293,-2.2218 -1.67341,-4.7155 -3.06274,-6.0114 -2.77569,-2.5891 -1.74527,-2.5075 -44.08666,-3.4894 -29.72015,-0.6891 -39.7483,-0.7825 -41.22764,-0.3843 -2.69704,0.7264 -5.71198,3.8159 -6.51202,6.6733 -1.69075,6.0388 2.31621,12.2462 8.26805,12.8085 1.6972,0.1603 54.25545,1.5133 74.56971,1.9197 1.96538,0.039 4.18242,-0.2346 5.48166,-0.6774 z m 1525.10293,-0.4572 c 29.8275,-0.6647 31.3569,-0.7409 33.2495,-1.6565 3.4417,-1.6652 5.7064,-5.2629 5.7133,-9.076 0.013,-4.098 -3.1582,-8.4438 -6.9761,-9.5771 -1.1824,-0.351 -12.9033,-0.2307 -41.0869,0.4217 -34.3589,0.7955 -39.6719,1.0129 -41.2923,1.6899 -6.3545,2.655 -8.0893,10.5809 -3.4656,15.8336 2.8528,3.241 4.2537,3.566 14.1927,3.2923 4.6198,-0.1271 22.4693,-0.5447 39.6654,-0.9279 z m -1673.76251,-3.8484 c 2.33871,-1.6682 3.82471,-3.9292 4.38921,-6.6783 0.69801,-3.3994 -0.043,-5.9533 -2.50117,-8.6202 -2.86575,-3.1089 -4.11701,-3.3217 -21.59319,-3.6726 -8.20649,-0.1648 -14.96666,-0.3454 -15.0226,-0.4013 -0.056,-0.056 -0.23652,-6.8162 -0.4013,-15.0227 -0.3509,-17.4761 -0.56373,-18.7274 -3.6727,-21.5932 -2.65405,-2.4463 -5.22424,-3.1982 -8.5787,-2.5097 -2.83095,0.581 -4.69579,1.7708 -6.51999,4.1601 -1.25955,1.6496 -1.2846,1.812 -1.41726,9.1838 -0.0742,4.1275 0.0438,14.4342 0.26224,22.904 0.36842,14.2806 0.46817,15.5351 1.37292,17.2661 1.12617,2.1547 2.4921,3.4993 4.79968,4.7248 1.4074,0.7476 3.14997,0.9055 12.5996,1.1421 6.03148,0.151 16.32115,0.2577 22.86594,0.2371 11.66972,-0.037 11.92894,-0.058 13.41732,-1.12 z m 1807.22491,0.9013 c 11.5419,-0.3019 12.7563,-0.4122 14.4662,-1.3121 2.1675,-1.1408 3.5158,-2.5174 4.7081,-4.8065 0.7336,-1.4086 0.8957,-3.3664 1.1787,-14.2329 0.1805,-6.9298 0.3473,-16.9777 0.3706,-22.3288 0.048,-10.9814 -0.1339,-11.7832 -3.2811,-14.4772 -4.1283,-3.5336 -9.2816,-3.4274 -13.2973,0.274 -3.1014,2.8588 -3.3153,4.1184 -3.6661,21.5871 -0.1648,8.2065 -0.3454,14.9667 -0.4013,15.0227 -0.056,0.056 -6.8161,0.2365 -15.0227,0.4013 -17.4687,0.3508 -18.7283,0.5647 -21.5871,3.666 -1.7536,1.9026 -2.8912,4.4536 -2.8974,6.4979 -0.013,3.4896 2.638,7.8384 5.6908,9.3429 1.7479,0.8614 10.9685,0.9614 33.7386,0.3656 z M 540.94003,2297.1302 c 2.60309,-0.7778 5.55326,-3.7981 6.29158,-6.4412 0.47142,-1.6876 0.40986,-9.5497 -0.32318,-41.2847 -0.78873,-34.1456 -1.00563,-39.4398 -1.68219,-41.059 -1.91349,-4.5795 -6.48958,-6.8565 -11.5981,-5.7707 -2.99599,0.6366 -6.48243,3.8189 -7.2538,6.6207 -0.65695,2.3863 1.08831,79.6074 1.85174,81.9314 0.67968,2.0691 4.10917,5.4775 6.08372,6.0464 2.20351,0.6347 4.41003,0.6204 6.63023,-0.043 z m 1867.05877,0.07 c 2.1912,-0.6085 5.5825,-3.8753 6.3045,-6.0732 0.7575,-2.3065 2.5089,-79.5368 1.8578,-81.9313 -0.7001,-2.5746 -4.2857,-5.9159 -7.1124,-6.6278 -5.0011,-1.2592 -10.0737,1.3881 -11.9591,6.2414 -0.369,0.9497 -0.8366,13.9655 -1.4587,40.5967 -1.0237,43.8316 -1.1102,42.0085 2.1482,45.2669 2.7708,2.7708 6.247,3.6305 10.2197,2.5273 z M 538.71801,2145.9664 c 2.3407,-1.1002 4.56926,-3.7591 5.26607,-6.2827 0.56453,-2.0445 -0.26447,-41.0794 -0.94397,-44.4488 -0.71202,-3.5306 -3.11104,-5.8129 -8.57906,-8.1614 -2.30993,-0.9922 -11.06447,-4.8246 -19.45454,-8.5165 -16.66732,-7.334 -17.78441,-7.6335 -21.61083,-5.795 -2.49214,1.1974 -3.68956,2.3024 -4.8586,4.4836 -1.20308,2.2447 -1.3127,6.5782 -0.2244,8.8717 1.51672,3.1963 3.07243,4.101 19.24213,11.1908 8.63863,3.7877 15.7482,6.9118 15.79906,6.9425 0.0509,0.03 0.28572,7.9238 0.52189,17.5404 0.46493,18.9308 0.5424,19.4708 3.17019,22.1014 3.07767,3.081 7.75981,3.913 11.67206,2.074 z m 1873.55019,0.1231 c 2.2038,-1.0226 4.622,-3.4506 5.3912,-5.4133 0.4646,-1.1854 1.1727,-18.6364 1.3539,-33.3655 l 0.037,-3.0334 2.6752,-1.141 c 12.6803,-5.409 28.8582,-12.7785 29.9692,-13.6517 2.7945,-2.1969 4.1842,-7.7124 2.8364,-11.2575 -0.7087,-1.8639 -3.3858,-4.5995 -5.3938,-5.5117 -3.6781,-1.6709 -5.4194,-1.2932 -16.4918,3.578 -5.5613,2.4466 -14.304,6.279 -19.4284,8.5165 -10.9869,4.7972 -12.8823,6.2363 -13.7298,10.4255 -0.6712,3.3177 -1.4936,42.4525 -0.9346,44.4769 1.5802,5.723 8.3453,8.8686 13.7152,6.3772 z M 433.83919,2060.039 c 3.87621,-2.5651 5.4906,-6.9337 4.26111,-11.5305 -0.92146,-3.445 -3.41074,-5.3481 -11.7109,-8.953 -3.95525,-1.7178 -11.70622,-5.1091 -17.22437,-7.5362 -5.51817,-2.4272 -16.12283,-7.0892 -23.56592,-10.3598 -7.4431,-3.2708 -15.63284,-6.8795 -18.19942,-8.0195 -6.25102,-2.7764 -8.88445,-3.0323 -12.35907,-1.2011 -3.59428,1.8942 -5.38179,4.8121 -5.35261,8.7373 0.025,3.3639 1.29881,6.1657 3.59114,7.8991 1.29115,0.9763 13.29565,6.3395 66.15221,29.5546 6.26293,2.7508 6.97945,2.9611 9.62863,2.8248 2.16913,-0.1116 3.32637,-0.4543 4.7792,-1.4157 z m 2089.72541,-1.6415 c 59.9818,-26.2093 64.5989,-28.3064 66.5392,-30.2241 4.8332,-4.7768 3.4099,-12.789 -2.8126,-15.8334 -4.3034,-2.1054 -4.6025,-2.0142 -29.8943,9.1309 -12.3197,5.4289 -23.7643,10.4566 -25.4326,11.1729 -1.6682,0.7164 -5.2381,2.2807 -7.9331,3.4764 -2.6949,1.1957 -7.1979,3.1605 -10.0066,4.3663 -7.6276,3.2745 -10.0488,6.025 -10.0568,11.4237 -0.013,5.1385 4.709,9.6798 10.0305,9.6576 1.8452,-0.013 3.8462,-0.6709 9.5663,-3.1703 z M 294.72727,2000.1913 c 4.65041,-1.9431 6.98143,-6.9963 5.53019,-11.9883 -1.1123,-3.8262 -2.85849,-5.2918 -10.11654,-8.4909 -14.84509,-6.5431 -19.42979,-8.5456 -20.89054,-9.1249 -1.05574,-0.4186 -1.48483,-0.854 -1.34126,-1.3608 0.11609,-0.4098 2.65213,-7.0207 5.63558,-14.6907 5.86807,-15.0858 6.19654,-16.5415 4.53975,-20.1201 -2.92853,-6.3254 -11.19621,-7.8235 -16.23932,-2.9427 -1.46935,1.4221 -2.50216,3.8308 -10.61587,24.7587 -1.16921,3.0157 -3.09699,7.9506 -4.28397,10.9664 -1.66487,4.2298 -2.15618,6.0783 -2.14956,8.0876 0.0102,3.1475 1.29629,5.9305 3.52633,7.6314 0.85827,0.6545 6.37254,3.3028 12.25392,5.8849 5.88138,2.5821 13.73832,6.0373 17.45987,7.6781 3.72156,1.6409 7.50143,3.3015 8.39973,3.6902 2.1297,0.9216 6.11219,0.9317 8.29169,0.022 z m 2366.66423,-2.3718 c 3.8877,-1.7017 9.5884,-4.1996 12.6683,-5.5511 3.0799,-1.3513 8.5067,-3.7288 12.0596,-5.2833 7.4209,-3.247 9.2535,-4.4883 10.6512,-7.2146 1.6304,-3.1804 1.3523,-6.1328 -1.1846,-12.5725 -1.1881,-3.0158 -3.1167,-7.9507 -4.2859,-10.9664 -8.1138,-20.9279 -9.1466,-23.3366 -10.616,-24.7587 -5.0431,-4.8808 -13.3106,-3.3827 -16.2392,2.9427 -1.6642,3.5943 -1.3426,4.9922 4.7672,20.7275 3.1084,8.0059 5.5758,14.6263 5.4831,14.7118 -0.093,0.085 -6.4567,2.9061 -14.1421,6.2678 -11.0377,4.8279 -14.3509,6.4806 -15.7698,7.8661 -4.1839,4.0856 -3.84,11.3092 0.7038,14.7748 2.1591,1.6468 3.4731,2.0864 6.3381,2.1204 2.094,0.025 3.6409,-0.4708 9.5663,-3.0645 z M 299.36526,1877.948 c 3.77272,-1.1204 5.10106,-2.9991 8.77276,-12.4078 1.74328,-4.4671 5.01872,-12.847 7.27874,-18.6218 14.33035,-36.6171 18.15066,-46.8221 18.15066,-48.485 0,-2.2819 -0.78713,-4.5474 -2.25632,-6.494 -3.61006,-4.783 -11.99398,-4.7658 -15.65361,0.032 -0.64049,0.8398 -2.41997,4.7791 -3.95439,8.7541 -1.53443,3.975 -4.18783,10.7971 -5.89645,15.1603 -1.70864,4.3633 -3.7084,9.508 -4.44392,11.433 -0.73553,1.9249 -4.41412,11.3746 -8.17468,20.9993 -5.74603,14.7063 -6.84239,17.9091 -6.86882,20.0661 -0.0537,4.3785 2.54093,8.0851 6.64948,9.4991 2.66943,0.9186 3.4925,0.927 6.39655,0.065 z m 2350.06244,-0.043 c 4.0812,-1.363 6.7758,-5.027 6.8259,-9.2818 0.027,-2.3225 -1.5105,-6.5876 -12.5368,-34.7711 -1.3554,-3.4648 -5.4434,-13.9646 -9.084,-23.3326 -3.6407,-9.368 -7.1383,-17.7171 -7.7725,-18.5537 -3.6327,-4.7919 -12.0345,-4.806 -15.6421,-0.027 -1.4692,1.9466 -2.2563,4.2121 -2.2563,6.4941 0,1.6628 3.8203,11.8678 18.1507,48.485 2.26,5.7747 5.5259,14.1301 7.2574,18.5674 3.2414,8.3066 4.4434,10.3135 6.9631,11.6263 3.0541,1.5914 5.1026,1.7921 8.0946,0.7928 z M 821.68527,1848.5746 c 39.9732,-3.6647 71.43255,-13.8071 98.23024,-31.6695 8.10249,-5.4008 13.62645,-9.9551 20.76599,-17.121 15.86293,-15.9215 26.04483,-33.3442 32.1864,-55.0752 5.28925,-18.7152 6.5945,-42.6434 3.47385,-63.6853 -7.25778,-48.9391 -37.99836,-80.1023 -98.65829,-100.0144 -19.15811,-6.2889 -23.53151,-7.3363 -74.43093,-17.8255 -12.57628,-2.5917 -25.80585,-5.4423 -29.39908,-6.3344 -47.06903,-11.6876 -69.33356,-29.5991 -71.58208,-57.5865 -0.89919,-11.1923 1.32983,-22.5431 6.13984,-31.2657 11.34626,-20.5758 35.26807,-33.5548 68.00883,-36.8989 6.76552,-0.6909 23.81754,-0.6911 30.56569,-10e-5 25.78075,2.6397 45.81179,11.1002 60.25139,25.4485 11.08679,11.0166 17.10884,23.2662 19.79572,40.2662 l 0.53463,3.3833 h 40.62269 40.62269 l -0.32619,-5.7165 c -1.8886,-33.0987 -14.05514,-61.7677 -35.93049,-84.666 -28.42887,-29.7583 -70.09959,-47.143 -121.22626,-50.5749 -10.89784,-0.7315 -36.92821,-0.3415 -46.34284,0.6943 -26.85282,2.9544 -49.25939,9.2041 -70.46444,19.6542 -16.66389,8.2121 -30.06833,17.8066 -42.07518,30.1157 -17.63867,18.083 -28.43833,38.1938 -33.25597,61.9284 -2.05522,10.1253 -2.58548,15.8983 -2.58082,28.0981 0.005,11.9685 0.49149,17.2237 2.55375,27.5615 9.38477,47.0441 45.93979,80.1449 108.95716,98.6613 11.47954,3.373 18.66547,5.0317 48.5318,11.2021 35.05589,7.2427 39.16807,8.1513 48.53178,10.7233 37.02444,10.1699 56.20903,22.899 63.66981,42.2457 4.50607,11.6844 4.66999,27.852 0.40878,40.3064 -4.28964,12.5375 -14.43132,24.5002 -27.29017,32.1902 -9.85915,5.8962 -22.51783,10.3583 -36.55509,12.8854 -16.06953,2.8929 -38.69434,3.1609 -56.23155,0.6661 -36.16855,-5.1455 -63.11246,-21.429 -75.13514,-45.4078 -2.70629,-5.3976 -5.10396,-12.5825 -6.12609,-18.3576 l -0.80529,-4.5498 h -40.58416 -40.58417 l 0.31125,5.5073 c 1.12193,19.8523 7.04458,40.7701 16.22345,57.2988 6.15107,11.0764 12.64301,19.5461 22.32366,29.1242 29.50922,29.197 72.31124,45.807 127.40973,49.4438 9.51381,0.6279 39.85009,0.2258 49.4651,-0.6557 z m 333.77073,-18.689 c 2.0147,-6.1598 5.3133,-16.2395 7.33,-22.3993 5.0616,-15.4593 18.3115,-55.9913 23.6451,-72.331 2.4296,-7.4432 4.6436,-14.1104 4.9199,-14.8163 l 0.5024,-1.2832 88.024,0.013 88.0238,0.013 4.2785,13.174 c 7.2569,22.3451 19.2873,59.1994 20.4474,62.6393 0.6059,1.7966 4.2775,12.9788 8.1589,24.8492 l 7.0574,21.5826 h 44.5435 c 24.499,0 44.5436,-0.1324 44.5436,-0.2944 0,-0.1619 -5.9988,-17.1188 -13.3307,-37.6821 -12.6215,-35.3983 -14.7062,-41.2323 -20.2398,-56.6371 -1.2676,-3.5292 -11.8843,-33.2956 -23.5926,-66.148 -11.7082,-32.8522 -21.7901,-61.0963 -22.4043,-62.7646 -0.6141,-1.6683 -11.19,-31.2773 -23.5019,-65.7979 -12.312,-34.5206 -32.2194,-90.3254 -44.2387,-124.0108 l -21.8532,-61.246 -47.8319,-5e-4 -47.8318,-4e-4 -3.1121,8.7482 c -1.7117,4.8114 -9.1262,25.5476 -16.4767,46.0803 -13.2913,37.1276 -35.1745,98.3354 -39.4573,110.3631 -1.2338,3.4649 -7.7389,21.6294 -14.4558,40.3654 -6.7171,18.7361 -12.3834,34.5906 -12.5918,35.2322 -0.2086,0.6417 -5.3531,15.0262 -11.4322,31.9657 -6.0792,16.9394 -12.2767,34.2639 -13.7724,38.4987 -2.3472,6.6465 -19.8809,55.6789 -25.2811,70.6979 -1.015,2.8232 -2.5471,7.1281 -3.4047,9.5663 -1.488,4.231 -14.1956,39.7382 -24.711,69.0471 -2.7131,7.5619 -4.9329,13.8101 -4.9329,13.8853 0,0.075 20.096,0.082 44.6577,0.018 l 44.6577,-0.1192 z m 57.8928,-176.9777 c 0.1091,-0.1925 0.6602,-1.82 1.2257,-3.6166 0.9811,-3.117 6.2465,-19.2368 24.7696,-75.8309 4.5783,-13.9879 12.1366,-37.0872 16.7965,-51.3316 4.6597,-14.2446 10.2292,-31.2541 12.3766,-37.7988 2.1473,-6.5449 5.4307,-16.5721 7.2965,-22.2828 1.9543,-5.9818 3.6328,-10.383 3.9598,-10.383 0.5418,0 3.2222,7.988 22.8612,68.1313 4.2324,12.9612 9.7634,29.8657 12.2912,37.5655 2.5276,7.6996 6.3817,19.4593 8.5646,26.1325 12.998,39.7353 20.9955,64.2224 21.6421,66.2645 0.4062,1.2833 0.8355,2.5957 0.9539,2.9165 0.1717,0.465 -13.2961,0.5834 -66.3601,0.5834 -36.6164,0 -66.4863,-0.1576 -66.3776,-0.35 z m 694.702,152.7118 v -35.6989 h -107.5632 -107.5633 v -201.5935 -201.5937 h -42.4653 -42.4654 v 237.2925 237.2925 h 150.0286 150.0286 z m 428.3865,0 v -35.6989 H 2225.374 2114.3109 v -67.4311 -67.4312 h 104.9967 104.9966 v -34.5322 -34.5323 h -104.9966 -104.9967 v -63.698 -63.6979 h 111.0631 111.0633 v -35.9323 -35.9322 h -153.5285 -153.5285 v 237.2925 237.2925 h 153.5285 153.5285 z M 355.29177,1737.0299 c 3.72185,-1.8683 3.14781,-0.6511 16.33204,-34.632 3.98868,-10.2803 4.19797,-11.7586 2.19234,-15.4865 -0.71557,-1.3301 -3.76066,-4.9172 -6.88312,-8.1085 -3.07991,-3.148 -9.47094,-9.7787 -14.20233,-14.7353 -4.80871,-5.0376 -9.37952,-9.4084 -10.36441,-9.9108 -1.19838,-0.6114 -2.72112,-0.8989 -4.76099,-0.8989 -2.61244,0 -3.28823,0.1955 -5.24183,1.5166 -4.24443,2.8702 -5.70766,8.5042 -3.3459,12.8829 0.57749,1.0706 4.51485,5.5629 8.74972,9.9828 4.23487,4.4199 9.45868,9.8731 11.60849,12.1183 l 3.90871,4.0821 -6.24197,15.9908 c -5.42517,13.8982 -6.23997,16.3348 -6.22656,18.619 0.0425,7.2395 7.88526,11.8877 14.47581,8.5795 z m 2241.12673,-0.1453 c 3.411,-1.782 5.2732,-4.7484 5.2949,-8.4342 0.014,-2.2842 -0.8013,-4.7202 -6.2241,-18.6126 l -6.2396,-15.9844 7.4063,-7.7336 c 4.0733,-4.2535 9.3453,-9.7652 11.7155,-12.248 5.4018,-5.6586 6.3631,-7.4737 6.1049,-11.5279 -0.2345,-3.6821 -1.9155,-6.3693 -5.0046,-8.0002 -2.6489,-1.3984 -6.7717,-1.4813 -9.3087,-0.1869 -0.9849,0.5024 -5.5557,4.8732 -10.3645,9.9108 -4.7314,4.9566 -11.1224,11.5873 -14.2023,14.7353 -3.1225,3.1913 -6.1676,6.7784 -6.8832,8.1085 -2.0767,3.8601 -1.873,5.0103 3.1979,18.0524 12.225,31.4419 10.895,28.2725 12.6649,30.1814 2.9545,3.1862 7.7303,3.8876 11.8426,1.7394 z M 288.91854,1618.2253 c 2.41375,-0.6703 5.22641,-3.3158 6.1801,-5.813 1.10231,-2.8864 0.75498,-7.121 -0.75835,-9.2455 -0.62604,-0.8787 -5.54812,-6.1854 -10.93794,-11.7926 -8.42263,-8.7622 -12.31786,-12.8301 -20.06603,-20.9558 -0.76998,-0.8074 -5.62354,-5.8607 -10.78569,-11.2294 -5.16216,-5.3686 -9.98343,-10.4737 -10.71392,-11.3445 -1.58984,-1.8952 -5.4028,-3.7733 -7.66613,-3.7759 -5.82626,-0.013 -10.23142,4.3249 -10.2561,10.0854 -0.0192,4.4688 0.0162,4.515 16.56048,21.6397 2.85154,2.9515 7.2617,7.5714 9.80038,10.2664 2.53867,2.6948 7.35792,7.7346 10.70943,11.1996 3.35151,3.4649 8.86605,9.2116 12.25453,12.7707 7.99091,8.393 10.41092,9.6578 15.67924,8.1949 z m 2371.81016,-0.4585 c 1.1377,-0.5162 3.2139,-2.139 4.6141,-3.6063 1.4001,-1.4674 4.6739,-4.8729 7.275,-7.5678 6.3323,-6.5603 22.7306,-23.7248 24.1264,-25.2534 0.6132,-0.6715 5.2097,-5.4638 10.2145,-10.6498 5.005,-5.1858 9.6756,-10.4113 10.3792,-11.612 3.933,-6.7108 -1.0372,-15.0185 -8.9792,-15.0089 -2.121,0 -6.1078,1.8713 -7.3435,3.4423 -0.5336,0.6784 -5.3468,5.779 -10.6962,11.3348 -5.3493,5.5558 -10.356,10.7648 -11.126,11.5755 -0.77,0.8107 -3.6049,3.7698 -6.2998,6.5758 -9.0414,9.4142 -21.6869,22.6861 -23.024,24.1645 -2.1421,2.3683 -3.1096,4.6779 -3.0983,7.3958 0.03,7.4475 7.2877,12.2355 13.9578,9.2095 z M 187.30939,1508.0125 c 4.05731,-2.7438 5.59833,-8.1856 3.56699,-12.5963 -0.44242,-0.9607 -4.28229,-5.3704 -8.53302,-9.7996 -10.68364,-11.1322 -13.27072,-13.9302 -13.27072,-14.353 0,-0.4227 2.58708,-3.2207 13.27072,-14.3529 4.25073,-4.4292 8.0906,-8.8389 8.53302,-9.7996 2.03134,-4.4107 0.49032,-9.8526 -3.56699,-12.5963 -1.9536,-1.3211 -2.62939,-1.5166 -5.24183,-1.5166 -2.03107,0 -3.56299,0.2876 -4.74619,0.8913 -0.97348,0.4967 -5.87145,5.1976 -11.06116,10.6163 -5.12272,5.3488 -11.67587,12.165 -14.56255,15.1471 -5.65253,5.8394 -7.10375,8.2114 -7.10375,11.6107 0,3.4499 1.47785,5.8666 7.13405,11.6663 2.87851,2.9516 9.42032,9.7416 14.53735,15.0888 5.11704,5.3474 10.04695,10.1154 10.95536,10.5958 1.11668,0.5904 2.65485,0.8801 4.74882,0.894 2.741,0.018 3.35508,-0.1537 5.3399,-1.496 z m 2577.90431,0.6224 c 0.9768,-0.4984 5.7726,-5.0922 10.8311,-10.3749 4.993,-5.2144 11.1018,-11.5843 13.5753,-14.1554 7.399,-7.691 8.3449,-9.1616 8.3255,-12.9426 -0.017,-3.238 -1.4334,-5.5019 -7.2706,-11.6177 -19.2391,-20.1574 -23.9054,-24.8581 -25.467,-25.6548 -1.1832,-0.6037 -2.7152,-0.8913 -4.7463,-0.8913 -2.6124,0 -3.2882,0.1955 -5.2418,1.5166 -4.0573,2.7437 -5.5983,8.1856 -3.5669,12.5963 0.4424,0.9607 4.2822,5.3704 8.5329,9.7996 10.6837,11.1322 13.2707,13.9302 13.2707,14.3529 0,0.4228 -2.587,3.2208 -13.2707,14.353 -4.2507,4.4292 -8.0905,8.8389 -8.5329,9.7996 -2.0314,4.4107 -0.4904,9.8525 3.5669,12.5963 1.9536,1.3211 2.6294,1.5166 5.2418,1.5166 2.0345,0 3.563,-0.2876 4.752,-0.8942 z M 238.15619,1397.3614 c 1.29378,-0.6024 2.94876,-1.8079 3.67774,-2.6786 0.72897,-0.8708 5.55023,-5.9722 10.71392,-11.3363 5.16369,-5.3641 10.10279,-10.509 10.9758,-11.433 2.57166,-2.7219 9.41369,-9.8653 19.8787,-20.7545 5.38982,-5.6084 10.3119,-10.9168 10.93794,-11.7966 1.51329,-2.1269 1.86054,-6.3613 0.75835,-9.2474 -0.95369,-2.4972 -3.76635,-5.1427 -6.1801,-5.813 -4.53392,-1.259 -7.85853,-0.021 -12.19724,4.5398 -1.63551,1.7194 -7.20489,7.5362 -12.37642,12.9259 -9.83184,10.2469 -18.41263,19.2271 -19.20798,20.1021 -0.25666,0.2823 -4.55275,4.7627 -9.54688,9.9564 -4.99412,5.1936 -9.60433,10.2143 -10.2449,11.1569 -0.80846,1.1898 -1.22445,2.5401 -1.36004,4.4146 -0.58446,8.0802 6.90614,13.3467 14.17111,9.9637 z m 2473.59851,0.6099 c 3.9102,-1.0859 6.8703,-5.163 6.8703,-9.4628 0,-4.6319 0.033,-4.5888 -16.5706,-21.7749 -2.8516,-2.9515 -7.1691,-7.4664 -9.5944,-10.0329 -2.4254,-2.5666 -8.7472,-9.1814 -14.0486,-14.6997 -5.3013,-5.5181 -10.975,-11.4398 -12.608,-13.1592 -4.3251,-4.5541 -7.6585,-5.799 -12.1723,-4.5455 -5.7994,1.6106 -8.7118,9.1846 -5.5833,14.5206 0.7037,1.2004 5.6893,6.7609 11.0792,12.3568 5.3898,5.5957 11.7945,12.269 14.2329,14.8294 2.4382,2.5604 7.1764,7.4996 10.5294,10.976 3.3529,3.4764 8.8905,9.2606 12.3056,12.8538 7.9354,8.3493 10.3162,9.5945 15.5598,8.1384 z M 342.36629,1288.3705 c 0.98489,-0.5024 5.5557,-4.8731 10.36441,-9.9108 4.73139,-4.9566 11.12242,-11.5873 14.20233,-14.7353 3.12246,-3.1913 6.16755,-6.7784 6.88312,-8.1085 2.00563,-3.7279 1.79634,-5.2062 -2.19234,-15.4865 -9.62609,-24.8102 -11.81064,-30.2032 -12.87091,-31.7742 -1.6985,-2.5167 -5.34812,-4.1905 -8.55718,-3.9243 -5.39023,0.447 -9.35124,4.5384 -9.3805,9.6893 -0.0127,2.2279 0.84671,4.7916 6.2248,18.5693 l 6.23949,15.9844 -7.40612,7.7336 c -4.07337,4.2535 -9.34539,9.7652 -11.71561,12.248 -5.40178,5.6586 -6.36304,7.4737 -6.10489,11.5279 0.23446,3.6821 1.91551,6.3694 5.00461,8.0002 2.64885,1.3984 6.77177,1.4813 9.30879,0.1869 z m 2267.10551,-0.1869 c 3.0891,-1.6308 4.7701,-4.3181 5.0046,-8.0002 0.2582,-4.0542 -0.7031,-5.8693 -6.1049,-11.5279 -2.3702,-2.4828 -7.6422,-7.9945 -11.7155,-12.248 l -7.4063,-7.7336 6.2396,-15.9844 c 5.378,-13.7777 6.2374,-16.3414 6.2248,-18.5693 -0.048,-8.5306 -10.9803,-13.0118 -16.9204,-6.9361 -1.7373,1.7769 -1.8375,1.9837 -5.4056,11.1543 -13.7886,35.4383 -13.0507,32.8617 -10.675,37.2775 0.7156,1.3301 3.7607,4.9172 6.8832,8.1085 3.0799,3.148 9.4697,9.7775 14.1996,14.7325 4.7299,4.9551 9.3498,9.4056 10.2664,9.8903 2.4575,1.2991 6.7811,1.224 9.4095,-0.1636 z M 986.41341,1219.999 c 23.09309,-3.2748 40.78289,-10.1478 54.88399,-21.3239 18.0044,-14.2699 27.7057,-35.2443 27.7057,-59.9009 0,-22.0958 -7.0525,-39.3736 -20.9917,-51.4271 -12.8499,-11.1116 -33.5768,-19.8985 -59.73147,-25.3226 -2.69486,-0.5589 -10.95023,-2.2604 -18.34516,-3.7812 -15.39059,-3.165 -20.71473,-4.4603 -27.59025,-6.7126 -10.20322,-3.3423 -19.83793,-9.0921 -24.09965,-14.3821 -2.32745,-2.8892 -4.78557,-7.9946 -5.50988,-11.4438 -0.74029,-3.5253 -0.64273,-11.0767 0.18536,-14.3451 2.66112,-10.5042 10.67429,-18.87779 22.79364,-23.81878 8.98893,-3.6648 22.12998,-5.38961 33.71241,-4.42501 16.90987,1.40827 28.50245,6.23381 37.3488,15.54677 5.3368,5.61822 8.264,11.41052 9.8515,19.49422 l 0.8683,4.421 h 23.0747 23.0745 l -0.1581,-3.9665 c -1.1496,-28.82448 -19.1821,-53.88683 -48.0154,-66.73353 -23.3089,-10.38528 -55.8173,-13.01074 -83.30745,-6.72809 -25.08302,5.73253 -45.21656,18.56185 -57.08242,36.37365 -3.94783,5.92614 -6.15823,10.47891 -8.34019,17.17808 -2.62037,8.04529 -3.29185,12.84329 -3.27623,23.40969 0.0157,10.654 0.66754,15.2351 3.2775,23.0356 3.29497,9.848 7.63847,16.8379 15.13223,24.3524 9.71717,9.7439 22.02366,16.8988 38.83977,22.5812 8.35889,2.8246 15.80178,4.6316 38.40029,9.3232 24.81926,5.1524 34.49571,8.0093 43.406,12.8154 12.0858,6.5191 17.5058,15.1307 17.4839,27.7797 -0.016,9.4085 -2.612,16.1927 -8.6532,22.6145 -6.8929,7.3273 -15.27703,11.5175 -28.34664,14.1673 -4.68877,0.9505 -6.53868,1.0581 -18.05692,1.0497 -10.25054,-0.013 -13.69622,-0.1738 -17.12326,-0.8264 -4.85358,-0.9244 -12.2376,-3.0005 -15.90163,-4.4709 -14.86268,-5.9644 -24.7189,-16.7239 -27.60332,-30.133 l -0.80867,-3.7591 -23.22005,-0.1205 -23.22006,-0.1205 0.30548,3.6209 c 0.87772,10.4039 3.88701,21.5766 8.00584,29.7238 13.44097,26.5864 41.84243,43.0062 81.13297,46.9055 6.81462,0.6762 33.62652,0.2395 39.89877,-0.65 z m 262.02499,0.4383 c 25.2157,-2.6668 45.859,-11.0511 62.3327,-25.3162 8.6592,-7.4983 15.2139,-15.984 20.6356,-26.7144 5.4396,-10.7661 8.8647,-22.6027 10.108,-34.9318 0.3206,-3.1786 0.4873,-36.0416 0.4873,-96.0177 v -91.18525 l -24.1491,0.12053 -24.1492,0.12052 -0.258,90.9971 c -0.2796,98.7169 -0.1116,92.58 -2.7725,101.4967 -6.3122,21.1563 -22.1358,35.0569 -44.3348,38.947 -5.9591,1.0443 -18.1678,1.4376 -24.1703,0.7786 -8.5762,-0.9415 -17.1143,-3.1948 -22.7282,-5.9984 -12.5518,-6.2685 -22.5173,-17.8515 -27.0097,-31.3939 -3.584,-10.8041 -3.2599,-1.3434 -3.539,-103.3633 l -0.2502,-91.4638 h -24.266 -24.2659 v 92.6304 c 0,86.8162 0.053,92.9775 0.8394,98.1615 4.506,29.6903 19.476,52.7113 43.8508,67.4344 13.8932,8.3919 30.2809,13.6763 48.6302,15.6814 7.8698,0.8601 26.9461,0.8687 35.0089,0.017 z m 205.0935,-48.5308 v -44.5653 h 31.8489 c 18.0569,0 33.6678,-0.2055 36.0489,-0.4698 11.1891,-1.2413 22.9723,-4.5384 31.8248,-8.9051 8.6804,-4.2815 15.5486,-9.2096 22.317,-16.0125 9.7085,-9.7583 15.7996,-19.5071 19.998,-32.0069 3.7257,-11.0924 5.0411,-19.6768 5.0411,-32.899 0,-13.0292 -1.3656,-22.291 -4.8126,-32.6405 -10.6639,-32.01792 -37.6836,-52.95962 -73.9016,-57.27793 -3.9673,-0.47297 -17.852,-0.61203 -61.1315,-0.61203 h -55.9981 l -0.118,134.97906 -0.118,134.979 h 24.5 24.5001 z m 0,-134.6291 v -50.865 h 25.8527 c 23.823,0 26.2866,0.0736 31.3769,0.9443 19.2131,3.28469 32.2501,13.6643 37.6715,29.9928 4.5104,13.5846 3.6422,32.615 -2.0324,44.5482 -2.3113,4.8603 -4.008,7.3245 -7.8421,11.3888 -7.4261,7.8721 -18.8119,12.9239 -32.3932,14.3726 -2.5173,0.2685 -15.2219,0.4834 -28.5825,0.4834 h -24.0509 z m 372.2765,158.7784 -0.1218,-20.4161 -63.1147,-0.118 -63.1146,-0.118 v -38.2638 -38.2637 h 59.7314 59.7315 v -19.5994 -19.5995 h -59.7315 -59.7314 v -36.1654 -36.1656 h 63.2362 63.2363 l -0.1218,-20.41595 -0.1218,-20.41608 -87.3805,-0.11799 -87.3806,-0.11799 v 135.09691 135.0969 h 87.5022 87.5021 z m 105.575,-29.9824 v -50.3985 l 25.7825,2e-4 25.7826,2e-4 2.5124,4.783 c 1.3817,2.6307 3.5111,6.6729 4.7319,8.9829 1.2206,2.3099 6.466,12.2846 11.6561,22.166 5.1903,9.8813 10.3291,19.6459 11.4198,21.6992 1.0906,2.0533 3.5766,6.7782 5.5246,10.4997 1.9479,3.7215 6.5794,12.5412 10.2924,19.5994 l 6.751,12.8329 27.8405,0.1205 27.8405,0.1206 -1.3798,-2.4536 c -0.7588,-1.3495 -3.4311,-6.2335 -5.9383,-10.8533 -2.5073,-4.6199 -5.1319,-9.4497 -5.8324,-10.733 -0.7004,-1.2833 -4.5814,-8.4231 -8.6243,-15.8663 -4.043,-7.443 -10.4974,-19.3077 -14.3431,-26.3658 -8.2092,-15.0663 -9.3699,-17.2023 -12.0455,-22.1659 -1.1067,-2.0532 -3.9687,-7.3032 -6.3599,-11.6663 l -4.3477,-7.9331 1.5168,-0.6674 c 11.5666,-5.0902 18.2774,-9.5056 25.5491,-16.8103 7.5112,-7.545 12.7402,-15.2239 16.8356,-24.7231 6.2194,-14.4263 8.2759,-32.5122 5.734,-50.4296 -4.724,-33.29928 -26.3762,-56.90452 -60.135,-65.55978 -14.7086,-3.77099 -20.7125,-4.04046 -86.3307,-3.87337 l -53.1982,0.13537 -0.118,134.97908 -0.118,134.979 h 24.5 24.5001 z m 0,-134.6295 v -45.54596 l 31.8489,0.17356 c 30.5624,0.16645 32.013,0.21352 35.9062,1.16442 5.1433,1.25628 10.4331,3.35967 14.6089,5.80892 4.2905,2.51635 11.1543,9.38766 13.7107,13.72556 7.6291,12.9456 8.1652,33.3977 1.246,47.5398 -5.4482,11.1357 -14.6712,17.9501 -29.1896,21.5668 -2.6116,0.6506 -7.5563,0.7805 -35.5821,0.9341 l -32.549,0.1785 z M 328.32352,1153.0636 c 3.1036,-1.5833 5.2439,-5.2444 5.2439,-8.9697 0,-1.6629 -3.82031,-11.8679 -18.15066,-48.485 -2.26002,-5.7748 -5.52587,-14.1302 -7.25744,-18.5675 -3.31425,-8.493 -4.44368,-10.333 -7.19956,-11.7295 -6.80875,-3.4497 -14.5924,1.1042 -14.68557,8.5921 -0.0292,2.3489 1.49777,6.5959 12.08226,33.6046 4.10691,10.4795 6.62849,16.9524 11.72556,30.099 2.43798,6.2881 4.95052,12.1157 5.58344,12.9501 2.75863,3.6369 8.29343,4.7325 12.65807,2.5059 z m 2295.51228,-0.027 c 1.0293,-0.5251 2.3919,-1.6392 3.028,-2.4756 0.636,-0.8366 3.3556,-7.1908 6.0434,-14.1205 6.06,-15.6243 7.5809,-19.5305 11.2656,-28.9324 10.5822,-27.0024 12.1115,-31.2557 12.0823,-33.6046 -0.093,-7.4879 -7.8768,-12.0418 -14.6855,-8.5921 -2.7559,1.3965 -3.8853,3.2365 -7.1996,11.7295 -1.7315,4.4373 -4.9974,12.7926 -7.2574,18.5674 -14.3304,36.6171 -18.1507,46.8221 -18.1507,48.485 0,7.7436 7.9066,12.4977 14.8739,8.9433 z M 272.80101,1013.2201 c 2.30067,-0.961 4.22444,-2.8211 5.28344,-5.1084 1.66328,-3.5925 1.33982,-5.0051 -4.71454,-20.58765 -3.07957,-7.92614 -5.5995,-14.54589 -5.59981,-14.71057 -3.2e-4,-0.16468 0.82907,-0.63131 1.8431,-1.03704 1.74524,-0.6983 3.91717,-1.64564 20.0523,-8.7461 7.75265,-3.41169 9.46107,-4.8159 10.59196,-8.70602 1.50968,-5.19308 -1.22095,-10.62633 -6.15971,-12.25624 -3.32971,-1.09896 -6.36158,-0.3829 -15.36192,3.628 -4.61985,2.05874 -13.00149,5.76362 -18.62586,8.23317 -5.62437,2.46941 -10.92864,5.02574 -11.78726,5.68064 -2.2512,1.71708 -3.56981,4.5633 -3.55318,7.66974 0.0102,1.93643 0.55504,3.94162 2.21824,8.16643 1.21245,3.07992 3.35017,8.53968 4.75045,12.13292 8.39409,21.53982 8.59912,22.01602 10.10084,23.46842 2.90162,2.8064 7.3393,3.6859 10.96195,2.1727 z m 2404.65709,0 c 0.9541,-0.398 2.4086,-1.3758 3.2321,-2.1728 1.5015,-1.4532 1.708,-1.9327 10.1009,-23.46952 1.4002,-3.59324 3.538,-9.053 4.7505,-12.13292 1.6632,-4.22481 2.2078,-6.23 2.2182,-8.16643 0.017,-3.10644 -1.3019,-5.95266 -3.5533,-7.66974 -0.8585,-0.6549 -6.1628,-3.21123 -11.7872,-5.68064 -5.6243,-2.46955 -14.006,-6.17443 -18.6258,-8.23317 -9.0003,-4.0109 -12.0323,-4.72696 -15.3619,-3.628 -6.2243,2.05417 -8.5465,9.74889 -4.6618,15.44616 1.4883,2.18256 2.3183,2.61925 17.6905,9.30573 7.1863,3.12585 13.1421,5.75652 13.2349,5.84571 0.093,0.0888 -2.3747,6.71261 -5.4831,14.71855 -6.0025,15.45927 -6.3636,16.95367 -4.9272,20.39247 2.1023,5.0327 8.1587,7.5359 13.1732,5.4446 z M 367.39969,928.88733 c 2.56658,-1.13994 10.75632,-4.74929 18.19942,-8.02066 53.41505,-23.47696 48.81327,-21.35162 50.57448,-23.35758 5.54614,-6.31665 0.89066,-16.51124 -7.55764,-16.54981 -2.58541,-0.0127 -1.02118,-0.66036 -44.41679,18.41811 -16.16949,7.10884 -30.0835,13.44249 -30.92001,14.07494 -2.29223,1.73281 -3.56614,4.53475 -3.59114,7.89874 -0.0292,3.92526 1.75833,6.84316 5.35261,8.73735 3.47462,1.83112 6.10805,1.57523 12.35907,-1.20109 z m 2220.05821,1.22494 c 6.0612,-3.02029 7.4103,-11.04387 2.6499,-15.75839 -1.5964,-1.58107 -4.1901,-2.89545 -15.2178,-7.71249 -7.3113,-3.19372 -16.3382,-7.14867 -20.0597,-8.78873 -40.4018,-17.8052 -38.4923,-17.03319 -41.5747,-16.81015 -6.4045,0.4632 -10.5643,6.50886 -8.8526,12.8656 0.7109,2.63993 2.8198,4.95114 5.7772,6.33099 2.3091,1.07739 24.8431,11.01722 40.6836,17.94565 4.1064,1.79611 12.0862,5.31031 17.7327,7.80929 5.6464,2.4991 10.7913,4.7078 11.433,4.90838 2.3441,0.73293 4.9225,0.45876 7.4284,-0.79015 z M 511.50529,865.50621 c 6.46587,-2.84709 15.22101,-6.67947 19.45587,-8.51641 9.22023,-3.99941 11.2601,-5.63709 12.07895,-9.69741 0.6795,-3.36936 1.5085,-42.40423 0.94397,-44.44878 -1.66473,-6.02919 -8.67276,-9.03903 -14.34898,-6.16267 -4.6791,2.37109 -5.62988,5.4738 -5.65987,18.4702 -0.009,3.97821 -0.15219,10.80459 -0.31778,15.16974 l -0.30108,7.93663 -5.18066,2.26779 c -28.10359,12.3022 -28.18306,12.34447 -29.86303,15.88471 -0.82475,1.73804 -0.99845,6.09244 -0.31475,7.89068 0.70864,1.86386 3.3857,4.59949 5.39375,5.51172 3.75922,1.70777 5.27267,1.34798 18.11361,-4.3062 z m 1937.63231,4.3062 c 2.008,-0.91223 4.6851,-3.64786 5.3938,-5.51172 0.6448,-1.69601 0.5279,-6.03196 -0.2089,-7.74919 -1.518,-3.53747 -2.878,-4.2634 -30.0295,-16.02974 l -5.2413,-2.27136 -0.038,-3.03323 c -0.1849,-14.81722 -0.8897,-32.18033 -1.3543,-33.36561 -0.7692,-1.96268 -3.1874,-4.39066 -5.3913,-5.41322 -5.3689,-2.49105 -12.1352,0.65516 -13.7151,6.37723 -0.559,2.02434 0.2634,41.15921 0.9345,44.47682 0.8119,4.01273 2.8993,5.71725 11.6139,9.48357 3.9783,1.71932 12.693,5.54542 19.3661,8.50245 13.2763,5.88307 14.856,6.2667 18.6701,4.534 z M 540.76085,739.07638 c 2.12446,-1.08216 3.5041,-2.59373 4.46379,-4.8906 0.67435,-1.61394 0.89344,-6.95159 1.68513,-41.05331 1.01768,-43.83607 1.10431,-42.01596 -2.15472,-45.27005 -4.03796,-4.03183 -10.00745,-4.05029 -14.01442,-0.0434 -1.09592,1.09592 -2.22642,2.70763 -2.51219,3.58155 -0.75179,2.29902 -2.51281,79.54043 -1.86677,81.88017 0.26554,0.96171 1.36562,2.68294 2.44464,3.82495 3.12918,3.31191 7.80743,4.08308 11.95454,1.97062 z m 1870.21295,0.14758 c 2.0599,-0.9572 4.6335,-3.91347 5.2033,-5.97704 0.3251,-1.17797 0.1923,-13.86499 -0.4294,-40.98173 -0.9986,-43.55931 -0.8345,-41.79782 -4.1738,-44.81467 -4.0142,-3.62654 -9.9319,-3.4499 -13.7996,0.4119 -3.252,3.24697 -3.1657,1.43525 -2.1534,45.26056 0.7888,34.14559 1.0056,39.43974 1.6822,41.059 2.222,5.31802 8.2736,7.54996 13.6707,5.04198 z M 542.32632,589.25361 c 0.98934,-0.27471 2.72439,-1.35266 3.85568,-2.39542 3.10147,-2.85885 3.31539,-4.11843 3.66614,-21.58715 0.16478,-8.2065 0.34536,-14.96666 0.4013,-15.0226 0.0559,-0.0559 6.81611,-0.23653 15.0226,-0.40131 17.47618,-0.3509 18.72744,-0.56372 21.59319,-3.6727 2.44643,-2.65405 3.19838,-5.22424 2.50985,-8.57869 -0.58107,-2.83095 -1.77094,-4.69579 -4.16013,-6.51999 -1.64965,-1.25955 -1.81204,-1.28461 -9.18383,-1.41726 -4.12747,-0.0742 -14.43426,0.043 -22.90399,0.26073 -13.44331,0.34549 -15.60699,0.50297 -17.0328,1.23959 -2.28343,1.17972 -3.66347,2.52952 -4.8065,4.70119 -0.9,1.70991 -1.01015,2.92434 -1.31213,14.46621 -0.18131,6.92978 -0.34874,16.97772 -0.37207,22.32876 -0.048,11.00551 0.12933,11.77944 3.32586,14.51553 2.71048,2.32008 5.95395,3.0391 9.39683,2.08311 z m 1863.40808,-0.0101 c 2.4389,-0.6141 5.4184,-3.03363 6.4732,-5.25643 0.8588,-1.80985 0.9493,-10.60385 0.346,-33.66048 -0.3019,-11.54187 -0.4122,-12.7563 -1.3121,-14.46621 -1.1431,-2.17167 -2.5231,-3.52146 -4.8065,-4.70119 -1.4259,-0.73662 -3.5895,-0.89409 -17.0328,-1.23959 -8.4698,-0.21768 -18.7594,-0.33502 -22.8659,-0.26073 -6.9471,0.1256 -7.5721,0.21034 -8.9842,1.21754 -2.3387,1.66813 -3.8247,3.92911 -4.3892,6.67831 -0.698,3.39945 0.043,5.95331 2.5011,8.6201 2.8658,3.10897 4.1171,3.3218 21.5932,3.6727 8.2066,0.16478 14.9667,0.34536 15.0227,0.4013 0.056,0.0559 0.2365,6.81611 0.4013,15.0226 0.3432,17.09141 0.5869,18.62173 3.4044,21.37295 2.8663,2.7989 5.7599,3.57836 9.6488,2.59913 z M 695.69469,546.86418 c 31.77404,-0.75076 36.88382,-0.96856 38.49241,-1.64067 4.55405,-1.90281 6.85534,-6.49829 5.77551,-11.53329 -0.63898,-2.97953 -3.90184,-6.58131 -6.63531,-7.32454 -2.3919,-0.65038 -79.60961,1.1044 -81.92565,1.86175 -3.47127,1.13513 -6.56736,5.58281 -6.57483,9.44504 -0.008,3.87796 3.0972,8.37838 6.53531,9.47328 2.21395,0.70503 2.71102,0.70188 44.33256,-0.28157 z M 2292.6986,546.4321 c 6.8082,-4.23284 6.476,-14.04593 -0.5977,-17.6576 -2.09,-1.06719 -2.1985,-1.07235 -41.6063,-1.98164 -27.4936,-0.63438 -40.0339,-0.76719 -41.2309,-0.43669 -0.9461,0.26123 -2.6458,1.32815 -3.7769,2.37093 -5.3668,4.94693 -3.8541,13.67462 2.8609,16.50571 1.6157,0.68122 6.2758,0.89291 35.4592,1.61072 18.4793,0.45452 36.6437,0.79409 40.3654,0.75459 6.2183,-0.066 6.909,-0.16046 8.5263,-1.16602 z M 830.55166,543.77858 c 8.08474,-0.14342 15.73182,-0.49061 16.99351,-0.77156 3.78042,-0.84176 5.55301,-3.06631 9.22748,-11.58021 1.71693,-3.97821 5.45534,-12.48293 8.30755,-18.89941 5.72881,-12.88773 6.30513,-15.06098 4.94116,-18.63251 -0.82826,-2.16873 -3.68635,-5.1249 -5.69222,-5.88754 -2.27849,-0.86627 -6.19905,-0.52915 -8.51514,0.73222 -3.28537,1.78923 -2.89991,1.0597 -13.85839,26.22919 l -3.7042,8.50782 -3.03324,0.0379 c -18.23187,0.22779 -32.11049,0.84841 -33.59893,1.50244 -6.7199,2.9528 -8.15402,12.67944 -2.50483,16.98829 2.83599,2.16311 4.53536,2.516 10.90456,2.26448 3.20823,-0.12674 12.44794,-0.3477 20.53269,-0.49113 z m 1309.54274,0.0487 c 7.3424,-2.62023 9.2218,-11.56401 3.5559,-16.92169 -0.8655,-0.81839 -2.2036,-1.73491 -2.9736,-2.03669 -1.1847,-0.46435 -18.2424,-1.15775 -33.3655,-1.35632 l -3.0334,-0.0398 -3.6948,-8.5059 c -10.5367,-24.2559 -11.1088,-25.30459 -14.6062,-26.77429 -1.739,-0.73076 -6.0704,-0.83391 -7.7766,-0.18519 -2.0059,0.76263 -4.864,3.7188 -5.6922,5.88754 -1.3135,3.43938 -0.7334,5.86849 3.8927,16.29925 2.2767,5.13317 6.0155,13.63362 8.3086,18.88987 4.899,11.22991 6.3041,13.09448 10.5266,13.96835 2.0534,0.42496 14.274,0.83263 40.3076,1.34466 1.54,0.0303 3.5878,-0.2261 4.5509,-0.56977 z M 895.92865,437.33529 c 0.8187,-0.47966 2.06368,-1.60707 2.76655,-2.50538 0.70274,-0.8983 4.64068,-9.29803 8.7508,-18.66607 8.95924,-20.42051 14.80761,-33.71875 19.8043,-45.0319 4.52955,-10.25538 4.87705,-12.22525 2.83912,-16.09229 -1.89418,-3.59428 -4.81209,-5.38179 -8.73735,-5.35261 -3.36411,0.025 -6.16618,1.29902 -7.89848,3.59115 -0.6322,0.83651 -3.49707,6.87576 -6.36626,13.42055 -2.86919,6.54479 -5.91219,13.47457 -6.76197,15.39951 -0.84991,1.92495 -3.44074,7.80476 -5.7574,13.06626 -2.31667,5.26149 -6.25614,14.1862 -8.75423,19.8327 -4.92525,11.13215 -5.61366,13.87213 -4.28316,17.0478 0.9915,2.36655 2.88327,4.4165 5.13675,5.5662 2.42108,1.23524 6.91028,1.10148 9.26133,-0.27592 z m 1159.24915,0.59858 c 3.8785,-1.62531 6.3727,-5.26205 6.3912,-9.31889 0.013,-2.51643 0.053,-2.41338 -14.2198,-34.85043 -4.7999,-10.90798 -10.6173,-24.13757 -12.9277,-29.39907 -2.3103,-5.26149 -4.7168,-10.25078 -5.3478,-11.08729 -1.7286,-2.29138 -4.5316,-3.56614 -7.8965,-3.59115 -3.9252,-0.0292 -6.8431,1.75833 -8.7373,5.35261 -2.0577,3.90448 -1.7052,5.77142 3.1709,16.79226 2.2144,5.00485 6.4198,14.55954 9.3453,21.23266 16.3365,37.26267 17.8871,40.64694 19.4175,42.37587 2.5016,2.8265 7.343,3.94383 10.8042,2.49343 z m -800.6163,-63.52899 c 2.0806,-0.86929 3.3525,-1.92673 9.7508,-8.10697 2.8276,-2.73111 9.1954,-8.83679 14.1507,-13.56817 5.0336,-4.80616 9.4064,-9.38004 9.9085,-10.36441 0.6114,-1.19839 0.8989,-2.72113 0.8989,-4.761 0,-2.61244 -0.1955,-3.28823 -1.5166,-5.24183 -2.8697,-4.24359 -8.5105,-5.70953 -12.8749,-3.3459 -1.0662,0.57749 -5.5579,4.51486 -9.9816,8.74972 -4.4236,4.23488 -9.8804,9.45869 -12.1263,11.60849 l -4.0833,3.90872 -15.9908,-6.24198 c -13.7836,-5.38036 -16.3476,-6.23996 -18.5757,-6.22729 -7.2541,0.0412 -11.9374,7.76418 -8.6823,14.31751 1.566,3.15273 3.2518,4.28749 10.5672,7.11253 6.0802,2.34801 25.2466,9.80429 30.099,11.70933 3.2538,1.27742 6.1139,1.43003 8.4564,0.45125 z m 458.3331,-6.86139 c 10.704,-4.15524 20.2511,-8.09261 21.2161,-8.74973 2.5736,-1.75273 4.2539,-5.37694 3.9867,-8.59901 -0.447,-5.39023 -4.5384,-9.35124 -9.6893,-9.38049 -2.2268,-0.0127 -4.801,0.8491 -18.5825,6.22068 l -15.9977,6.23538 -4.0765,-3.90212 c -2.242,-2.14616 -7.6958,-7.367 -12.1194,-11.60188 -9.5812,-9.17244 -10.7739,-9.93709 -15.1366,-9.70478 -3.8187,0.20334 -6.483,1.8361 -8.1507,4.995 -1.3984,2.64885 -1.4813,6.77176 -0.1869,9.30879 0.5024,0.98489 4.8732,5.55569 9.9108,10.36441 4.9566,4.73138 11.5873,11.12242 14.7353,14.20233 6.3547,6.21765 9.3523,8.1664 12.5613,8.1664 1.5593,0 6.8535,-1.85783 21.5294,-7.55498 z m -565.4393,-34.52126 c 0.8725,-0.29932 2.2825,-1.06976 3.1336,-1.7121 4.7797,-3.60757 4.7655,-12.00654 -0.027,-15.64336 -0.8365,-0.63487 -8.1357,-3.72501 -16.2204,-6.86698 -8.0847,-3.14199 -16.6945,-6.4883 -19.1328,-7.43624 -37.6095,-14.62192 -38.9682,-15.11828 -41.3042,-15.08977 -7.4873,0.0914 -12.042,7.87609 -8.5921,14.68501 1.3965,2.75588 3.2365,3.88531 11.7295,7.19956 4.4373,1.73158 12.7926,4.99746 18.5674,7.25752 49.875,19.51931 48.0632,18.90402 51.8454,17.60636 z m 670.8589,-6.47654 c 9.958,-3.86144 22.8303,-8.86988 28.6052,-11.1299 5.7748,-2.26002 14.1302,-5.52586 18.5675,-7.25744 8.493,-3.31425 10.3331,-4.44368 11.7295,-7.19956 2.6597,-5.24942 0.8075,-11.02666 -4.3922,-13.69975 -3.747,-1.92629 -4.9013,-1.65056 -23.8049,5.68679 -9.4963,3.68595 -19.2611,7.47563 -21.6993,8.4215 -28.0023,10.86288 -34.055,13.31427 -35.4052,14.33915 -2.3049,1.74956 -3.9835,5.68684 -3.6446,8.54846 0.4977,4.20212 2.7951,7.23071 6.594,8.69271 3.2827,1.26333 4.633,0.8947 23.45,-6.40196 z M 954.52007,300.20543 c 1.35384,-0.40206 3.02994,-1.36391 3.97348,-2.28025 1.611,-1.56456 2.07434,-2.53758 11.47103,-24.09016 1.39876,-3.20823 2.61545,-5.90908 2.70375,-6.00187 0.0888,-0.0927 6.71097,2.37463 14.71691,5.48316 15.73526,6.10974 17.13326,6.43124 20.72746,4.76718 6.3292,-2.93034 7.8235,-11.19623 2.9368,-16.2454 -1.4532,-1.50153 -1.9327,-1.7079 -23.46952,-10.10083 -3.59324,-1.40029 -9.053,-3.538 -12.13292,-4.75046 -6.56316,-2.58375 -9.49325,-2.86755 -12.68925,-1.2291 -2.72633,1.39773 -3.96764,3.23032 -7.21465,10.65119 -1.55442,3.55289 -3.93198,8.97974 -5.28329,12.05963 -8.77617,20.00208 -8.64511,19.66651 -8.64511,22.133 0,4.9243 2.62318,8.39096 7.46344,9.8633 1.80106,0.54785 2.90001,0.49547 5.44187,-0.25939 z M 1995.6661,299.555 c 3.4486,-1.76844 5.2484,-4.83875 5.2484,-8.95348 0,-2.46649 0.1311,-2.13092 -8.6451,-22.133 -1.3513,-3.07989 -3.7288,-8.50674 -5.2833,-12.05963 -3.2385,-7.4015 -4.4916,-9.25709 -7.1767,-10.62692 -3.2142,-1.6398 -6.2127,-1.3555 -12.7272,1.20676 -3.0799,1.2114 -8.5396,3.34824 -12.1329,4.74853 -21.5367,8.39293 -22.0163,8.5993 -23.4695,10.10083 -4.8867,5.04917 -3.3924,13.31506 2.9368,16.2454 3.5925,1.66328 5.0051,1.33982 20.5877,-4.71454 7.9262,-3.07958 14.5371,-5.5995 14.6908,-5.59982 0.1539,-3.2e-4 1.2463,2.25685 2.4277,5.01592 8.9792,20.97101 10.6196,24.34887 12.5,25.73913 3.3123,2.44889 7.5134,2.84103 11.0433,1.03082 z M 1339.28,294.33751 c 0.9411,-0.6434 6.2909,-5.57217 11.8883,-10.95282 5.5975,-5.38065 12.2674,-11.77793 14.822,-14.21618 4.351,-4.15282 12.5592,-12.02352 21.7411,-20.84701 2.1829,-2.09781 4.9944,-4.72272 6.2474,-5.83315 5.0161,-4.44492 5.8769,-10.77482 2.0569,-15.12544 -3.2446,-3.69535 -8.4485,-4.59325 -12.5914,-2.17254 -1.2044,0.70372 -6.7693,5.68816 -12.3664,11.07655 -5.597,5.38837 -12.2764,11.7857 -14.843,14.21627 -2.5666,2.43057 -6.9764,6.65476 -9.7996,9.38711 -4.6545,4.50466 -9.3098,8.96261 -17.7442,16.99197 -4.3935,4.18255 -5.6322,7.57537 -4.3938,12.03503 0.6335,2.28067 2.9692,4.9189 5.3346,6.02514 2.7169,1.27075 7.344,0.99024 9.6481,-0.58493 z m 273.6174,0.55986 c 2.3527,-1.06878 4.6976,-3.70615 5.3346,-6.00007 1.2531,-4.51251 0.013,-7.84539 -4.5456,-12.17601 -1.7193,-1.63496 -7.3081,-6.99561 -12.4192,-11.91252 -5.1111,-4.91692 -9.5227,-9.14984 -9.8033,-9.4065 -1.6131,-1.47523 -11.0737,-10.48849 -15.6692,-14.92827 -12.8792,-12.44266 -15.8938,-15.16979 -17.5199,-15.84921 -6.8236,-2.85111 -14.2343,2.13027 -14.1997,9.54482 0.013,2.56833 1.6568,5.62945 4.388,8.16641 2.5174,2.33848 6.6277,6.26522 17.5542,16.76983 3.2207,3.0962 7.9488,7.6244 10.5071,10.06266 2.5582,2.43825 9.2275,8.83172 14.8206,14.2077 10.3562,9.95441 11.0322,10.55122 13.2721,11.71974 1.7795,0.92828 6.0239,0.8265 8.2803,-0.19858 z M 1447.1121,190.87541 c 0.9607,-0.44242 5.3704,-4.28228 9.7996,-8.53302 11.1322,-10.68364 13.9302,-13.27072 14.3529,-13.27072 0.4228,0 3.2208,2.58708 14.353,13.27072 4.4292,4.25074 8.8389,8.0906 9.7996,8.53302 4.4107,2.03135 9.8525,0.49032 12.5963,-3.56699 1.3211,-1.95359 1.5166,-2.62938 1.5166,-5.24182 0,-2.03108 -0.2876,-3.563 -0.8913,-4.74619 -0.4975,-0.97503 -5.189,-5.85976 -10.6163,-11.05344 -5.3488,-5.11848 -12.14,-11.66147 -15.0916,-14.53998 -5.7997,-5.6562 -8.2164,-7.13404 -11.6663,-7.13404 -3.3358,0 -5.5489,1.37114 -11.7193,7.2603 -20.1574,19.23915 -24.8581,23.9055 -25.6548,25.46716 -0.6037,1.18319 -0.8913,2.71511 -0.8913,4.74619 0,2.61244 0.1955,3.28823 1.5166,5.24182 2.7438,4.05731 8.1856,5.59834 12.5963,3.56699 z" />
  </g>
</svg>
